# generated from PmQm by Jehee Lee
:FULLY-SPECIFIED
:DEGREES
660
root 42.23965706 38.4189 -48.39014542 -34.11676966 -87.65887614 35.45380025
RightUpLeg -29.93221291 3.164108094 -1.37456233
RightLeg 1.858433306 0 0
RightFoot -0.7183217672 2.904889577 5.137562337
RightToes 2.32829e-010 -1.59028e-015 9.93923e-017
Spine -10.7843 -6.26734 -10.1272
Spine1 13.8011 -7.57906 7.00812
HEad -8.70347 5.48074 1.07417
LeftShoulder1 9.93923e-017 0 1.22299e-017
LeftArm 29.2754 12.6124 -77.5387
LeftForeArm -48.1855 -28.5891 18.2097
LeftHand 0.801969 5.68333 -0.307163
RightShoulder 1.98785e-016 -4.96962e-017 1.55301e-017
RightArm 13.7765 -62.7281 73.6493
RightForeArm -28.2108 15.8837 -1.35653
RightHand 1.12705 -10.9789 -2.80964
LeftUpLeg 19.91584179 -1.077660418 9.951264837
LeftLeg -3.756877186 0 0
LeftFoot -1.277426126 -1.817631354 -19.9815935
LeftToes 8.82235e-011 9.04645e-011 1.87288e-011
661
root 40.40687444 38.2878 -48.36103478 -6.428149337 -87.77985725 7.858765301
RightUpLeg -29.73687247 3.851234823 -0.6704663557
RightLeg 5.470140655 0 0
RightFoot 2.397072882 1.422757033 3.280307746
RightToes 2.32829e-010 -1.59028e-015 9.93923e-017
Spine -11.0823 -6.32863 -8.25998
Spine1 14.0797 -7.86548 7.06816
HEad -8.76553 5.69424 0.709591
LeftShoulder1 9.93923e-017 0 1.22299e-017
LeftArm 29.0949 15.9192 -78.3907
LeftForeArm -49.8271 -27.3878 17.7096
LeftHand 0.82302 5.83404 -0.371178
RightShoulder 1.98785e-016 -4.96962e-017 1.55301e-017
RightArm 10.2148 -62.1444 74.3148
RightForeArm -26.0691 15.2511 -0.567928
RightHand 1.12095 -10.8908 -2.91922
LeftUpLeg 22.27175295 -2.096674344 11.52989043
LeftLeg -3.756877186 0 0
LeftFoot 1.975058386 -1.225229489 -23.48716578
LeftToes 8.82235e-011 9.04645e-011 1.87288e-011
662
root 38.52220127 38.165 -48.31035632 27.73255515 -86.59206217 -26.44109065
RightUpLeg -29.77291142 4.752416819 0.3514408673
RightLeg 11.03899843 0 0
RightFoot 6.24003163 0.2431725503 0.8687734224
RightToes 2.32829e-010 -1.59028e-015 9.93923e-017
Spine -10.9399 -6.41197 -5.48148
Spine1 13.8472 -8.17579 6.99416
HEad -8.70126 5.58694 0.205254
LeftShoulder1 9.93923e-017 0 1.22299e-017
LeftArm 29.0531 20.3477 -79.6497
LeftForeArm -50.8804 -25.8241 16.4731
LeftHand 0.855054 6.00922 -1.12265
RightShoulder 1.98785e-016 -4.96962e-017 1.55301e-017
RightArm 8.52088 -61.6776 75.5044
RightForeArm -25.8572 15.2745 -0.718439
RightHand 1.12223 -10.8038 -3.2164
LeftUpLeg 24.29014613 -4.442986976 13.39939718
LeftLeg -3.756877186 0 0
LeftFoot 8.335412529 1.868609822 -27.72164848
LeftToes 8.82235e-011 9.04645e-011 1.87288e-011
663
root 36.71140616 38.0808 -48.25472573 46.81744589 -84.62090937 -45.96548972
RightUpLeg -29.49115375 5.082718544 2.239251844
RightLeg 16.52567506 0 0
RightFoot 7.114297604 0.3759461223 -0.4520531397
RightToes 2.32829e-010 -1.59028e-015 9.93923e-017
Spine -10.1178 -6.00399 -1.72661
Spine1 13.3684 -7.93258 6.7795
HEad -9.08561 4.90566 -0.295565
LeftShoulder1 9.93923e-017 0 1.22299e-017
LeftArm 24.5905 24.621 -81.2319
LeftForeArm -46.0359 -23.8681 12.0075
LeftHand 0.858088 6.00119 -1.52961
RightShoulder 1.98785e-016 -4.96962e-017 1.55301e-017
RightArm 7.0644 -60.6268 77.2965
RightForeArm -26.1256 15.4337 -1.01533
RightHand 1.12325 -10.7692 -3.33988
LeftUpLeg 18.73653199 -6.734445916 18.14147374
LeftLeg 10.88805294 0 0
LeftFoot 14.79458606 1.64920815 -30.20646806
LeftToes 8.82235e-011 9.04645e-011 1.87288e-011
